<svg xmlns="http://www.w3.org/2000/svg" viewBox="0 0 60 60"><defs><style>.cls-1{fill:none;stroke:#000;stroke-miterlimit:10;stroke-width:0.97px;}.cls-2{font-size:12px;font-family:Roboto-Medium, Roboto;font-weight:500;}</style></defs><g id="Layer_2" data-name="Layer 2"><rect class="cls-1" x="12.89" y="8" width="34" height="44" rx="2.9"/><path d="M18.39,39q5.76-.21,11.5-.34c1.92,0,3.84-.16,5.75-.09a55.4,55.4,0,0,1,5.75.43v.1a55.4,55.4,0,0,1-5.75.43c-1.91.07-3.83,0-5.75-.09q-5.75-.14-11.5-.34Z"/><path d="M18.39,32q5.76-.21,11.5-.34c1.92-.05,3.84-.16,5.75-.09a55.4,55.4,0,0,1,5.75.43v.1a55.4,55.4,0,0,1-5.75.43c-1.91.07-3.83,0-5.75-.09q-5.75-.14-11.5-.34Z"/><path d="M18.39,45q5.76-.21,11.5-.34c1.92,0,3.84-.16,5.75-.09a55.4,55.4,0,0,1,5.75.43v.1a55.4,55.4,0,0,1-5.75.43c-1.91.07-3.83,0-5.75-.09q-5.75-.14-11.5-.34Z"/><text class="cls-2" transform="translate(25.17 25.31)">CV</text></g></svg>