<svg xmlns="http://www.w3.org/2000/svg" viewBox="0 0 60 60"><g id="Layer_2" data-name="Layer 2"><path d="M12.39,29.63l.21,23.1-.27-.27,13.84-.1-.38.37L25.7,38.92v-.46h.47l9.08-.07h.53v.54l.1,13.81-.64-.63h6.82c2.27,0,4.54,0,6.81.06l-.56.56c0-3.85.08-7.7.18-11.55s.18-7.7.32-11.55H49c.14,3.85.24,7.7.32,11.55s.13,7.7.18,11.55v.56h-.57c-2.27,0-4.54.06-6.81.06H34.61v-.64l.1-13.81.53.54-9.08-.07.46-.47-.09,13.81v.38h-.37L12.33,53h-.27v-.27l.21-23.1Z"/><path d="M5.48,29A61.12,61.12,0,0,0,18.39,18.21a77.37,77.37,0,0,0,5.28-6.54c.84-1.13,1.66-2.28,2.64-3.36A8,8,0,0,1,28,6.87a4.49,4.49,0,0,1,4.52-.1,8,8,0,0,1,1.78,1.39,36.73,36.73,0,0,1,2.77,3.28c1.73,2.22,3.44,4.43,5.29,6.53A93.21,93.21,0,0,0,54.5,29.59l-.07.1a63.78,63.78,0,0,1-13-10.9,81.93,81.93,0,0,1-5.33-6.61,38.28,38.28,0,0,0-2.59-3.24A4.59,4.59,0,0,0,30.27,7.2,4.7,4.7,0,0,0,27,8.93c-.94,1-1.79,2.11-2.65,3.22a76.79,76.79,0,0,1-5.47,6.48A61.13,61.13,0,0,1,5.55,29.06Z"/><path d="M12.89,19.09l-.22-5-.18-5V8.63H13c2.48,0,4.95-.29,7.43-.13l.62,0,0,.55a38.69,38.69,0,0,1-.52,5h-.13a40.55,40.55,0,0,1-.53-5l.59.58c-2.48.17-4.95-.08-7.43-.13l.45-.45-.17,5-.22,5Z"/></g></svg>