<svg xmlns="http://www.w3.org/2000/svg" viewBox="0 0 60 60"><defs><style>.cls-1{stroke:#000;stroke-miterlimit:10;stroke-width:1.99px;}.cls-2{fill:#fff;}</style></defs><g id="Layer_2" data-name="Layer 2"><circle class="cls-1" cx="29.55" cy="29.92" r="23.5"/><path class="cls-2" d="M36.54,42a12.41,12.41,0,0,1-7.46,2C22.35,44,17.69,39.39,17.69,32s4.84-13.24,12.79-13.24c6,0,10.91,3.84,10.91,10.39,0,5.46-2.85,8.73-6.35,8.73-1.68,0-2.82-.75-2.71-2.63a4.82,4.82,0,0,1-4.43,2.63c-2.35,0-4.21-1.72-4.21-5.25,0-4.62,2.68-8.19,6.18-8.19,2.71,0,3.59,1.63,3.83,2.68l.57-2.38h1.49L33.9,33.47c-.48,2.23.2,2.92,1.37,2.92,2.62,0,4.44-2.78,4.44-7.11,0-5.48-3.75-9-9.34-9-6.77,0-10.93,5.05-11,11.74,0,6,3.77,10.38,9.76,10.38A12.48,12.48,0,0,0,36,40.57Zm-11.2-9.46c0,2.55,1.06,3.89,2.82,3.89,2.14,0,3.74-1.37,4.58-5.12.77-3.43-.2-5.34-2.88-5.34C27,25.92,25.34,29,25.34,32.49Z"/></g></svg>