<svg xmlns="http://www.w3.org/2000/svg" viewBox="0 0 60 60"><defs><style>.cls-1{fill:none;stroke:#000;stroke-miterlimit:10;stroke-width:1.83px;}</style></defs><g id="Layer_2" data-name="Layer 2"><path class="cls-1" d="M7.34,31.19c-1.64,8.67,2.15,17.16,9.13,21a18,18,0,0,0,17.37,0C40.65,48.34,44.26,40,42.52,31.64Z"/><path d="M44.8,33.84a46.24,46.24,0,0,1,6.87-.09,5.5,5.5,0,0,1,.92.21,1.87,1.87,0,0,1,.92.66,3,3,0,0,1,.43,2,9.9,9.9,0,0,1-1.15,3.45A13,13,0,0,1,48,45.39a10.87,10.87,0,0,1-6.87,1.42l0-.18a20,20,0,0,0,5.91-2.77,17.91,17.91,0,0,0,4.47-4.51,8.43,8.43,0,0,0,1.24-2.87,1.91,1.91,0,0,0-.12-1.26c-.11-.28-.62-.45-1.13-.57a54.31,54.31,0,0,0-6.7-.63Z"/><path d="M25.64,12a11.69,11.69,0,0,0-2.49,3.59,9.2,9.2,0,0,0-.9,4.17,10.91,10.91,0,0,0,1,4.09,15.15,15.15,0,0,0,2.37,3.62l-.06.07a8.36,8.36,0,0,1-4.06-7.78,9.91,9.91,0,0,1,1.22-4.38A12,12,0,0,1,25.58,12Z"/><path d="M25.59,20.18a10,10,0,0,0,3.14-3.38,8.18,8.18,0,0,0,1.09-4.36,9.73,9.73,0,0,0-1.27-4.25,11.75,11.75,0,0,0-3-3.47l.05-.07a7.71,7.71,0,0,1,3.69,3.07,8.29,8.29,0,0,1,1.22,4.72A8.67,8.67,0,0,1,29.12,17a10.4,10.4,0,0,1-3.48,3.22Z"/></g></svg>